<?xml version="1.0" encoding="iso-8859-1"?>
<!-- Uploaded to: SVG Repo, www.svgrepo.com, Generator: SVG Repo Mixer Tools -->
<svg fill="#000000" height="800px" width="800px" version="1.1" id="Layer_1" xmlns="http://www.w3.org/2000/svg" xmlns:xlink="http://www.w3.org/1999/xlink" 
	 viewBox="0 0 512 512" xml:space="preserve">
<g>
	<g>
		<path d="M456.42,330.944L322.553,197.078c-3.151-3.151-8.259-3.151-11.408,0l-2.957,2.957l-5.433-32.598l123.24-123.24
			c3.151-3.151,3.151-8.259,0-11.408L395.571,2.363C394.058,0.85,392.006,0,389.867,0s-4.192,0.85-5.704,2.363L252.081,134.444
			h-23.213c-8.019,0-14.808,5.632-16.344,13.453L97.415,32.787c-2.757-2.757-7.012-3.101-10.143-1.034
			c-0.447,0.296-0.871,0.64-1.266,1.034L55.58,63.212c-1.513,1.512-2.363,3.565-2.363,5.704c0,2.139,0.85,4.192,2.363,5.704
			l133.867,133.867c1.575,1.575,3.64,2.363,5.704,2.363c2.064,0,4.129-0.787,5.704-2.363l1.858-1.858l-7.606,45.636L86.005,361.368
			c-3.151,3.151-3.151,8.259,0,11.408l30.424,30.425c1.512,1.513,3.565,2.363,5.704,2.363s4.192-0.85,5.704-2.363l50.537-50.536
			l-23.867,143.2h-18.981c-4.455,0-8.067,3.612-8.067,8.067s3.612,8.067,8.067,8.067h240.947c4.455,0,8.067-3.612,8.067-8.067
			s-3.612-8.067-8.067-8.067h-18.981l-36.037-216.219l93.13,93.13c1.378,1.379,3.131,2.153,4.931,2.326
			c0.257,0.025,0.515,0.037,0.773,0.037c2.064,0,4.129-0.787,5.704-2.363l30.425-30.424c1.513-1.512,2.363-3.565,2.363-5.704
			C458.783,334.508,457.933,332.457,456.42,330.944z M389.867,19.476l19.016,19.016L286.424,160.95l-19.015-19.015L389.867,19.476z
			 M278.637,191.554l10.095-10.095l5.434,32.597l-7.743,7.742l-7.787-7.786c1.687-3.385,2.64-7.197,2.64-11.229
			C281.277,198.751,280.323,194.939,278.637,191.554z M228.338,151.029c0.044-0.26,0.267-0.45,0.53-0.45h24.368l21.779,21.779
			l-7.787,7.786c-3.385-1.687-7.197-2.64-11.229-2.64s-7.844,0.954-11.229,2.64l-18.245-18.244L228.338,151.029z M265.143,202.783
			c0,5.042-4.101,9.143-9.143,9.143s-9.143-4.102-9.143-9.143c0-5.042,4.101-9.143,9.143-9.143S265.143,197.741,265.143,202.783z
			 M222.343,187l3.233-3.233l7.787,7.786c-1.687,3.385-2.64,7.197-2.64,11.229s0.954,7.844,2.64,11.229l-18.625,18.625L222.343,187z
			 M195.152,191.373L72.694,68.916l19.015-19.016l122.457,122.457L195.152,191.373z M122.133,386.089l-19.015-19.015
			l122.458-122.458l19.015,19.016L122.133,386.089z M273.748,495.865h-35.497v-26.354c0-9.786,7.962-17.748,17.748-17.748
			s17.748,7.962,17.748,17.748V495.865z M341.135,495.865h-51.251v-26.354c0-18.683-15.2-33.883-33.883-33.883
			c-18.683,0-33.883,15.2-33.883,33.883v26.354h-51.251l27.138-162.83l63.7-63.702c3.151-3.151,3.151-8.259,0-11.408l-24.72-24.72
			l7.786-7.786c3.385,1.687,7.197,2.64,11.23,2.64c4.032,0,7.844-0.954,11.229-2.64l34.597,34.597L341.135,495.865z
			 M420.291,355.664L297.833,233.207l19.016-19.016l122.457,122.457L420.291,355.664z"/>
	</g>
</g>
<g>
	<g>
		<path d="M256,306.549c-4.455,0-8.067,3.612-8.067,8.067v8.605c0,4.455,3.612,8.067,8.067,8.067s8.067-3.612,8.067-8.067v-8.605
			C264.067,310.161,260.455,306.549,256,306.549z"/>
	</g>
</g>
<g>
	<g>
		<path d="M256,358.181c-4.455,0-8.067,3.612-8.067,8.067v8.605c0,4.455,3.612,8.067,8.067,8.067s8.067-3.612,8.067-8.067v-8.605
			C264.067,361.793,260.455,358.181,256,358.181z"/>
	</g>
</g>
</svg>